<svg width="21.000000" height="25.000000" viewBox="0 0 21 25" fill="none" xmlns="http://www.w3.org/2000/svg" xmlns:xlink="http://www.w3.org/1999/xlink">
	<desc>
			Created with Pixso.
	</desc>
	<defs/>
	<path id="Blanchard" d="M0 25L13.15 25C18.34 25 21 22.58 21 18L21 17.92C21 14.51 19.31 12.44 16.05 11.85L16.05 11.53C18.78 11 20.2 9.17 20.2 6.21L20.2 6.12C20.2 2.08 17.72 0 12.87 0L0 0L0 25ZM5.18 10.23L5.18 3.53L11.32 3.53C13.8 3.53 15.03 4.64 15.03 6.82L15.03 6.89C15.03 9.1 13.8 10.23 11.32 10.23L5.18 10.23ZM5.18 21.44L5.18 13.48L11.48 13.48C14.21 13.48 15.56 14.8 15.56 17.39L15.56 17.46C15.56 20.1 14.21 21.44 11.48 21.44L5.18 21.44Z" fill="#ECECEC" fill-opacity="1.000000" fill-rule="nonzero"/>
</svg>
